{"accessors":[{"bufferView":0,"componentType":5123,"count":9360,"max":[6229],"min":[0],"type":"SCALAR"},{"bufferView":1,"componentType":5126,"count":6230,"max":[0.3965190052986145,6.2847900390625,0.26617228984832764],"min":[-2.4671401977539062,-0.05729702115058899,-1.7672322988510132],"type":"VEC3"},{"bufferView":2,"componentType":5126,"count":6230,"max":[0.9986796379089355,0.9983027577400208,0.9988247156143188],"min":[-0.9988229274749756,-0.961297333240509,-0.9978052377700806],"type":"VEC3"},{"bufferView":3,"componentType":5123,"count":240,"max":[239],"min":[0],"type":"SCALAR"},{"bufferView":4,"componentType":5126,"count":240,"max":[1.1196881532669067,1.1282905340194702,1.128961205482483],"min":[-1.151658296585083,-1.0,-1.1331194639205933],"type":"VEC3"},{"bufferView":5,"componentType":5126,"count":240,"max":[0.996549129486084,0.9853178262710571,0.9347051978111267],"min":[-0.9493332505226135,-0.9609105587005615,-0.9578131437301636],"type":"VEC3"},{"bufferView":6,"componentType":5123,"count":9360,"max":[6229],"min":[0],"type":"SCALAR"},{"bufferView":7,"componentType":5126,"count":6230,"max":[0.3965190052986145,6.2847900390625,0.26617228984832764],"min":[-2.4671401977539062,-0.05729702115058899,-1.7672322988510132],"type":"VEC3"},{"bufferView":8,"componentType":5126,"count":6230,"max":[0.9986796379089355,0.9983027577400208,0.9988247156143188],"min":[-0.9988229274749756,-0.961297333240509,-0.9978052377700806],"type":"VEC3"},{"bufferView":9,"componentType":5123,"count":240,"max":[239],"min":[0],"type":"SCALAR"},{"bufferView":10,"componentType":5126,"count":240,"max":[1.6413803100585938,8.19520378112793,3.302638530731201],"min":[-5.220474720001221,4.0512518882751465,-0.7175574898719788],"type":"VEC3"},{"bufferView":11,"componentType":5126,"count":240,"max":[0.9087210893630981,0.9807708263397217,0.9729738831520081],"min":[-0.9755677580833435,-0.9814020395278931,-0.9936825037002563],"type":"VEC3"},{"bufferView":12,"componentType":5123,"count":960,"max":[959],"min":[0],"type":"SCALAR"},{"bufferView":13,"componentType":5126,"count":960,"max":[1.2366923093795776,1.2128043174743652,1.6308739185333252],"min":[-1.2768943309783936,-1.2543600797653198,-1.279367208480835],"type":"VEC3"},{"bufferView":14,"componentType":5126,"count":960,"max":[0.9841623902320862,0.9996196031570435,0.9847782254219055],"min":[-0.9996055960655212,-0.9973782896995544,-0.9973752498626709],"type":"VEC3"},{"bufferView":15,"componentType":5123,"count":240,"max":[239],"min":[0],"type":"SCALAR"},{"bufferView":16,"componentType":5126,"count":240,"max":[1.1195119619369507,1.1282905340194702,1.53019118309021],"min":[-1.151658296585083,-1.0,-1.1331194639205933],"type":"VEC3"},{"bufferView":17,"componentType":5126,"count":240,"max":[0.9892218708992004,0.9838851094245911,0.9483970999717712],"min":[-0.9493332505226135,-0.985661506652832,-0.9578131437301636],"type":"VEC3"},{"bufferView":18,"componentType":5123,"count":3834,"max":[2555],"min":[0],"type":"SCALAR"},{"bufferView":19,"componentType":5126,"count":2556,"max":[0.9454922080039978,0.21641147136688232,0.9267945885658264],"min":[-0.9362155795097351,-1.751079797744751,-0.9401174783706665],"type":"VEC3"},{"bufferView":20,"componentType":5126,"count":2556,"max":[0.9977566599845886,0.9997870922088623,0.9961897730827332],"min":[-0.9993497133255005,-0.996887743473053,-0.9977871179580688],"type":"VEC3"},{"bufferView":21,"componentType":5126,"count":2556,"max":[0.0,1.0],"min":[0.0,1.0],"type":"VEC2"},{"bufferView":22,"componentType":5126,"count":2556,"max":[1.0,1.0,1.0,1.0],"min":[1.0,1.0,1.0,1.0],"type":"VEC4"},{"bufferView":23,"componentType":5123,"count":216,"max":[73],"min":[0],"type":"SCALAR"},{"bufferView":24,"componentType":5126,"count":74,"max":[0.9197606444358826,0.21641147136688232,0.775672435760498],"min":[-0.8446058034896851,0.008661204017698765,-0.8399052023887634],"type":"VEC3"},{"bufferView":25,"componentType":5126,"count":74,"max":[0.080287404358387,0.9958910942077637,-0.04189089685678482],"min":[0.080287404358387,0.9958910942077637,-0.04189089685678482],"type":"VEC3"},{"bufferView":26,"componentType":5126,"count":74,"max":[0.9999046921730042,0.9999046658631414],"min":[9.53341368585825e-05,0.09087169170379639],"type":"VEC2"},{"bufferView":27,"componentType":5126,"count":74,"max":[1.0,1.0,1.0,1.0],"min":[1.0,1.0,1.0,1.0],"type":"VEC4"},{"bufferView":28,"componentType":5123,"count":240,"max":[239],"min":[0],"type":"SCALAR"},{"bufferView":29,"componentType":5126,"count":240,"max":[1.1195119619369507,1.1282905340194702,1.128961205482483],"min":[-1.151658296585083,-1.0,-1.1331194639205933],"type":"VEC3"},{"bufferView":30,"componentType":5126,"count":240,"max":[0.9905961751937866,0.9838851094245911,0.9342464804649353],"min":[-0.9493332505226135,-0.9609105587005615,-0.9578131437301636],"type":"VEC3"},{"bufferView":31,"componentType":5123,"count":960,"max":[959],"min":[0],"type":"SCALAR"},{"bufferView":32,"componentType":5126,"count":960,"max":[1.295636534690857,1.1963838338851929,1.3368780612945557],"min":[-1.0331330299377441,-1.254637598991394,-1.0953108072280884],"type":"VEC3"},{"bufferView":33,"componentType":5126,"count":960,"max":[0.9715604782104492,0.9984214901924133,0.9873812794685364],"min":[-0.9856839776039124,-0.9896498918533325,-0.9950643181800842],"type":"VEC3"}],"asset":{"generator":"Khronos Blender glTF 2.0 exporter","version":"2.0"},"bufferViews":[{"buffer":0,"byteLength":18720,"byteOffset":0,"target":34963},{"buffer":0,"byteLength":74760,"byteOffset":18720,"target":34962},{"buffer":0,"byteLength":74760,"byteOffset":93480,"target":34962},{"buffer":0,"byteLength":480,"byteOffset":168240,"target":34963},{"buffer":0,"byteLength":2880,"byteOffset":168720,"target":34962},{"buffer":0,"byteLength":2880,"byteOffset":171600,"target":34962},{"buffer":0,"byteLength":18720,"byteOffset":174480,"target":34963},{"buffer":0,"byteLength":74760,"byteOffset":193200,"target":34962},{"buffer":0,"byteLength":74760,"byteOffset":267960,"target":34962},{"buffer":0,"byteLength":480,"byteOffset":342720,"target":34963},{"buffer":0,"byteLength":2880,"byteOffset":343200,"target":34962},{"buffer":0,"byteLength":2880,"byteOffset":346080,"target":34962},{"buffer":0,"byteLength":1920,"byteOffset":348960,"target":34963},{"buffer":0,"byteLength":11520,"byteOffset":350880,"target":34962},{"buffer":0,"byteLength":11520,"byteOffset":362400,"target":34962},{"buffer":0,"byteLength":480,"byteOffset":373920,"target":34963},{"buffer":0,"byteLength":2880,"byteOffset":374400,"target":34962},{"buffer":0,"byteLength":2880,"byteOffset":377280,"target":34962},{"buffer":0,"byteLength":7668,"byteOffset":380160,"target":34963},{"buffer":0,"byteLength":30672,"byteOffset":387828,"target":34962},{"buffer":0,"byteLength":30672,"byteOffset":418500,"target":34962},{"buffer":0,"byteLength":20448,"byteOffset":449172,"target":34962},{"buffer":0,"byteLength":40896,"byteOffset":469620,"target":34962},{"buffer":0,"byteLength":432,"byteOffset":510516,"target":34963},{"buffer":0,"byteLength":888,"byteOffset":510948,"target":34962},{"buffer":0,"byteLength":888,"byteOffset":511836,"target":34962},{"buffer":0,"byteLength":592,"byteOffset":512724,"target":34962},{"buffer":0,"byteLength":1184,"byteOffset":513316,"target":34962},{"buffer":0,"byteLength":480,"byteOffset":514500,"target":34963},{"buffer":0,"byteLength":2880,"byteOffset":514980,"target":34962},{"buffer":0,"byteLength":2880,"byteOffset":517860,"target":34962},{"buffer":0,"byteLength":1920,"byteOffset":520740,"target":34963},{"buffer":0,"byteLength":11520,"byteOffset":522660,"target":34962},{"buffer":0,"byteLength":11520,"byteOffset":534180,"target":34962}],"buffers":[{"byteLength":545700,"uri":"data:application/octet-stream;base64,"}],"materials":[{"name":"Material","pbrMetallicRoughness":{"baseColorFactor":[0.17322370409965515,0.8000000715255737,0.0,1.0],"metallicFactor":0.0}},{"name":"Material.001","pbrMetallicRoughness":{"baseColorFactor":[0.8000000715255737,0.23381935060024261,0.09727766364812851,1.0],"metallicFactor":0.0}},{"name":"Material.002","pbrMetallicRoughness":{"baseColorFactor":[0.8000000715255737,0.3996817171573639,0.033831238746643066,1.0],"metallicFactor":0.0}},{"name":"Tree bush","pbrMetallicRoughness":{"baseColorFactor":[0.09022139757871628,0.8000000715255737,0.09206889569759369,1.0],"metallicFactor":0.0}}],"meshes":[{"name":"Cube.001","primitives":[{"attributes":{"NORMAL":2,"POSITION":1},"indices":0}]},{"name":"Icosphere.001","primitives":[{"attributes":{"NORMAL":5,"POSITION":4},"indices":3,"material":3}]},{"name":"Cube.002","primitives":[{"attributes":{"NORMAL":8,"POSITION":7},"indices":6,"material":1}]},{"name":"Icosphere.004","primitives":[{"attributes":{"NORMAL":11,"POSITION":10},"indices":9,"material":3}]},{"name":"Icosphere.007","primitives":[{"attributes":{"NORMAL":14,"POSITION":13},"indices":12,"material":3}]},{"name":"Icosphere.005","primitives":[{"attributes":{"NORMAL":17,"POSITION":16},"indices":15,"material":3}]},{"name":"Icosphere","primitives":[{"attributes":{"COLOR_0":22,"NORMAL":20,"POSITION":19,"TEXCOORD_0":21},"indices":18,"material":0},{"attributes":{"COLOR_0":27,"NORMAL":25,"POSITION":24,"TEXCOORD_0":26},"indices":23,"material":2}]},{"name":"Icosphere.002","primitives":[{"attributes":{"NORMAL":30,"POSITION":29},"indices":28,"material":3}]},{"name":"Icosphere.006","primitives":[{"attributes":{"NORMAL":33,"POSITION":32},"indices":31,"material":3}]}],"nodes":[{"name":"Camera","rotation":[0.483536034822464,0.33687159419059753,-0.20870360732078552,0.7804827094078064],"translation":[7.481131553649902,5.34366512298584,6.5076398849487305]},{"mesh":0,"name":"Cube","translation":[-0.20404338836669922,-0.04589569568634033,0.21664714813232422]},{"mesh":2,"name":"Cube.001","scale":[0.7008219361305237,0.7008219361305237,0.7008219361305237],"translation":[-1.4596186876296997,0.20177903771400452,-1.5136096477508545]},{"mesh":6,"name":"Icosphere","scale":[6.050155162811279,2.563917398452759,5.77506160736084],"translation":[0.0674443244934082,0.1956956386566162,-0.07694315910339355]},{"mesh":7,"name":"Icosphere.001","scale":[0.24399840831756592,0.24399840831756592,0.24399840831756592],"translation":[-1.2530313730239868,4.113703727722168,-2.7840499877929688]},{"name":"Icosphere.002","scale":[0.24399840831756592,0.24399840831756592,0.24399840831756592],"translation":[-1.2530313730239868,4.228774547576904,-2.7840499877929688]},{"mesh":3,"name":"Icosphere.003","scale":[0.14332273602485657,0.14332273602485657,0.14332273602485657],"translation":[-1.7082536220550537,3.543984889984131,-2.994215488433838]},{"mesh":1,"name":"Icosphere.004","rotation":[0.0,-0.7355114221572876,-0.0,0.6775124073028564],"scale":[0.24399840831756592,0.24399840831756592,0.24399840831756592],"translation":[-3.181185483932495,4.299158096313477,-2.822584629058838]},{"mesh":5,"name":"Icosphere.005","rotation":[0.0,-0.7355114221572876,-0.0,0.6775124073028564],"scale":[0.24399840831756592,0.24399840831756592,0.24399840831756592],"translation":[-2.622284173965454,4.299158096313477,-2.9279391765594482]},{"mesh":8,"name":"Icosphere.006","scale":[0.18839676678180695,0.18839676678180695,0.18839676678180695],"translation":[-3.1985857486724854,4.436396598815918,-1.824665904045105]},{"mesh":4,"name":"Icosphere.007","scale":[0.16058069467544556,0.16058069467544556,0.16058069467544556],"translation":[-3.0906035900115967,4.6363115310668945,-2.0460727214813232]},{"name":"Lamp","rotation":[0.16907575726509094,0.7558802962303162,-0.27217137813568115,0.570947527885437],"scale":[1.0,1.0,0.9999999403953552],"translation":[4.076245307922363,5.903861999511719,-1.0054539442062378]}],"scene":0,"scenes":[{"name":"Scene","nodes":[9,6,5,4,3,11,0,2,7,8,10]},{"name":"Scene.001","nodes":[1]}]}
