{
    "accessors": [
        {
            "bufferView": 9,
            "byteOffset": 0,
            "componentType": 5123,
            "count": 756,
            "max": [
                2624
            ],
            "min": [
                0
            ],
            "name": "accessor_buffer_Icosphere_0",
            "type": "SCALAR"
        },
        {
            "bufferView": 1,
            "byteOffset": 0,
            "componentType": 5126,
            "count": 6238,
            "max": [
                0.9986796975135803,
                0.9978052377700806,
                0.9983030557632446
            ],
            "min": [
                -0.9988229870796204,
                -0.9988247156143188,
                -0.9612980484962463
            ],
            "name": "accessor_buffer_Cube.001_NORMAL_0",
            "type": "VEC3"
        },
        {
            "bufferView": 15,
            "byteOffset": 0,
            "componentType": 5126,
            "count": 240,
            "max": [
                0.9087210893630981,
                0.9936825037002563,
                0.9807707667350769
            ],
            "min": [
                -0.9755677580833435,
                -0.9729738831520081,
                -0.9814020395278931
            ],
            "name": "accessor_buffer_Icosphere.004_NORMAL_0",
            "type": "VEC3"
        },
        {
            "bufferView": 5,
            "byteOffset": 0,
            "componentType": 5123,
            "count": 9360,
            "max": [
                6237
            ],
            "min": [
                0
            ],
            "name": "accessor_buffer_Cube.002_0",
            "type": "SCALAR"
        },
        {
            "bufferView": 6,
            "byteOffset": 0,
            "componentType": 5126,
            "count": 2630,
            "max": [
                0.9454922080039978,
                0.9401174783706665,
                0.21641147136688232
            ],
            "min": [
                -0.9362155795097351,
                -0.9267945885658264,
                -1.751079797744751
            ],
            "name": "accessor_buffer_Icosphere_POSITION_0",
            "type": "VEC3"
        },
        {
            "bufferView": 13,
            "byteOffset": 0,
            "componentType": 5123,
            "count": 240,
            "max": [
                239
            ],
            "min": [
                0
            ],
            "name": "accessor_buffer_Icosphere.002_0",
            "type": "SCALAR"
        },
        {
            "bufferView": 16,
            "byteOffset": 0,
            "componentType": 5123,
            "count": 240,
            "max": [
                239
            ],
            "min": [
                0
            ],
            "name": "accessor_buffer_Icosphere.004_0",
            "type": "SCALAR"
        },
        {
            "bufferView": 11,
            "byteOffset": 0,
            "componentType": 5126,
            "count": 240,
            "max": [
                1.1195119619369507,
                1.1331194639205933,
                1.1282905340194702
            ],
            "min": [
                -1.151658296585083,
                -1.128961205482483,
                -1.0
            ],
            "name": "accessor_buffer_Icosphere.002_POSITION_0",
            "type": "VEC3"
        },
        {
            "bufferView": 14,
            "byteOffset": 0,
            "componentType": 5126,
            "count": 240,
            "max": [
                1.6413803100585938,
                0.7175574898719788,
                8.19520378112793
            ],
            "min": [
                -5.220474720001221,
                -3.302638530731201,
                4.0512518882751465
            ],
            "name": "accessor_buffer_Icosphere.004_POSITION_0",
            "type": "VEC3"
        },
        {
            "bufferView": 2,
            "byteOffset": 0,
            "componentType": 5123,
            "count": 9360,
            "max": [
                6237
            ],
            "min": [
                0
            ],
            "name": "accessor_buffer_Cube.001_0",
            "type": "SCALAR"
        },
        {
            "bufferView": 0,
            "byteOffset": 0,
            "componentType": 5126,
            "count": 6238,
            "max": [
                0.3965190052986145,
                1.7672322988510132,
                6.2847900390625
            ],
            "min": [
                -2.4671401977539062,
                -0.26617228984832764,
                -0.05729702115058899
            ],
            "name": "accessor_buffer_Cube.001_POSITION_0",
            "type": "VEC3"
        },
        {
            "bufferView": 10,
            "byteOffset": 0,
            "componentType": 5123,
            "count": 3294,
            "max": [
                2629
            ],
            "min": [
                1
            ],
            "name": "accessor_buffer_Icosphere_1",
            "type": "SCALAR"
        },
        {
            "bufferView": 7,
            "byteOffset": 0,
            "componentType": 5126,
            "count": 2630,
            "max": [
                0.9977567195892334,
                0.9977871179580688,
                0.9997870326042175
            ],
            "min": [
                -0.9993497133255005,
                -0.9961898326873779,
                -0.9968878030776978
            ],
            "name": "accessor_buffer_Icosphere_NORMAL_0",
            "type": "VEC3"
        },
        {
            "bufferView": 8,
            "byteOffset": 0,
            "componentType": 5126,
            "count": 2630,
            "max": [
                1.0,
                1.0,
                1.0
            ],
            "min": [
                1.0,
                1.0,
                1.0
            ],
            "name": "accessor_buffer_Icosphere_COLOR_0_0",
            "type": "VEC3"
        },
        {
            "bufferView": 12,
            "byteOffset": 0,
            "componentType": 5126,
            "count": 240,
            "max": [
                0.9905961155891418,
                0.9578131437301636,
                0.9838851094245911
            ],
            "min": [
                -0.9493332505226135,
                -0.9342464804649353,
                -0.960910439491272
            ],
            "name": "accessor_buffer_Icosphere.002_NORMAL_0",
            "type": "VEC3"
        },
        {
            "bufferView": 3,
            "byteOffset": 0,
            "componentType": 5126,
            "count": 6238,
            "max": [
                0.3965190052986145,
                1.7672322988510132,
                6.2847900390625
            ],
            "min": [
                -2.4671401977539062,
                -0.26617228984832764,
                -0.05729702115058899
            ],
            "name": "accessor_buffer_Cube.002_POSITION_0",
            "type": "VEC3"
        },
        {
            "bufferView": 4,
            "byteOffset": 0,
            "componentType": 5126,
            "count": 6238,
            "max": [
                0.9986796975135803,
                0.9978052377700806,
                0.9983030557632446
            ],
            "min": [
                -0.9988229870796204,
                -0.9988247156143188,
                -0.9612980484962463
            ],
            "name": "accessor_buffer_Cube.002_NORMAL_0",
            "type": "VEC3"
        }
    ],
    "asset": {
        "version": "2.0"
    },
    "bufferViews": [
        {
            "buffer": 0,
            "byteLength": 74856,
            "byteOffset": 0,
            "byteStride": 12,
            "name": "bufferView_buffer_Cube.001_POSITION_0",
            "target": 34962
        },
        {
            "buffer": 0,
            "byteLength": 74856,
            "byteOffset": 74856,
            "byteStride": 12,
            "name": "bufferView_buffer_Cube.001_NORMAL_0",
            "target": 34962
        },
        {
            "buffer": 0,
            "byteLength": 18720,
            "byteOffset": 149712,
            "name": "bufferView_buffer_Cube.001_0",
            "target": 34963
        },
        {
            "buffer": 0,
            "byteLength": 74856,
            "byteOffset": 168432,
            "byteStride": 12,
            "name": "bufferView_buffer_Cube.002_POSITION_0",
            "target": 34962
        },
        {
            "buffer": 0,
            "byteLength": 74856,
            "byteOffset": 243288,
            "byteStride": 12,
            "name": "bufferView_buffer_Cube.002_NORMAL_0",
            "target": 34962
        },
        {
            "buffer": 0,
            "byteLength": 18720,
            "byteOffset": 318144,
            "name": "bufferView_buffer_Cube.002_0",
            "target": 34963
        },
        {
            "buffer": 0,
            "byteLength": 31560,
            "byteOffset": 336864,
            "byteStride": 12,
            "name": "bufferView_buffer_Icosphere_POSITION_0",
            "target": 34962
        },
        {
            "buffer": 0,
            "byteLength": 31560,
            "byteOffset": 368424,
            "byteStride": 12,
            "name": "bufferView_buffer_Icosphere_NORMAL_0",
            "target": 34962
        },
        {
            "buffer": 0,
            "byteLength": 31560,
            "byteOffset": 399984,
            "byteStride": 12,
            "name": "bufferView_buffer_Icosphere_COLOR_0_0",
            "target": 34962
        },
        {
            "buffer": 0,
            "byteLength": 1512,
            "byteOffset": 431544,
            "name": "bufferView_buffer_Icosphere_0",
            "target": 34963
        },
        {
            "buffer": 0,
            "byteLength": 6588,
            "byteOffset": 433056,
            "name": "bufferView_buffer_Icosphere_1",
            "target": 34963
        },
        {
            "buffer": 0,
            "byteLength": 2880,
            "byteOffset": 439644,
            "byteStride": 12,
            "name": "bufferView_buffer_Icosphere.002_POSITION_0",
            "target": 34962
        },
        {
            "buffer": 0,
            "byteLength": 2880,
            "byteOffset": 442524,
            "byteStride": 12,
            "name": "bufferView_buffer_Icosphere.002_NORMAL_0",
            "target": 34962
        },
        {
            "buffer": 0,
            "byteLength": 480,
            "byteOffset": 445404,
            "name": "bufferView_buffer_Icosphere.002_0",
            "target": 34963
        },
        {
            "buffer": 0,
            "byteLength": 2880,
            "byteOffset": 445884,
            "byteStride": 12,
            "name": "bufferView_buffer_Icosphere.004_POSITION_0",
            "target": 34962
        },
        {
            "buffer": 0,
            "byteLength": 2880,
            "byteOffset": 448764,
            "byteStride": 12,
            "name": "bufferView_buffer_Icosphere.004_NORMAL_0",
            "target": 34962
        },
        {
            "buffer": 0,
            "byteLength": 480,
            "byteOffset": 451644,
            "name": "bufferView_buffer_Icosphere.004_0",
            "target": 34963
        }
    ],
    "buffers": [
        {
            "byteLength": 452124,
            "name": "buffer_floatingworld3",
            "uri": "data:application/octet-stream;base64,"
        }
    ],
    "cameras": [
        {
            "name": "Camera",
            "perspective": {
                "aspectRatio": 1.703595982340029,
                "yfov": 0.5033799409866333,
                "zfar": 100.0,
                "znear": 0.10000000149011612
            },
            "type": "perspective"
        }
    ],
    "materials": [
        {
            "emissiveFactor": [
                0.0,
                0.0,
                0.0
            ],
            "name": "Material",
            "pbrMetallicRoughness": {
                "baseColorFactor": [
                    0.02470642887055874,
                    0.64000004529953,
                    0.0,
                    1.0
                ],
                "metallicFactor": 0.0,
                "roughnessFactor": 1.0
            }
        },
        {
            "emissiveFactor": [
                0.0,
                0.0,
                0.0
            ],
            "name": "Material.001",
            "pbrMetallicRoughness": {
                "baseColorFactor": [
                    0.64000004529953,
                    0.2742599844932556,
                    0.023696038872003555,
                    1.0
                ],
                "metallicFactor": 0.0,
                "roughnessFactor": 1.0
            }
        },
        {
            "emissiveFactor": [
                0.0,
                0.0,
                0.0
            ],
            "name": "Material.002",
            "pbrMetallicRoughness": {
                "baseColorFactor": [
                    0.2634909451007843,
                    0.64000004529953,
                    0.011774412356317043,
                    1.0
                ],
                "metallicFactor": 0.0,
                "roughnessFactor": 1.0
            }
        },
        {
            "emissiveFactor": [
                0.0,
                0.0,
                0.0
            ],
            "name": "Material.003",
            "pbrMetallicRoughness": {
                "baseColorFactor": [
                    0.64000004529953,
                    0.11279963701963425,
                    0.0,
                    1.0
                ],
                "metallicFactor": 0.0,
                "roughnessFactor": 1.0
            }
        },
        {
            "emissiveFactor": [
                0.0,
                0.0,
                0.0
            ],
            "name": "Material.004",
            "pbrMetallicRoughness": {
                "baseColorFactor": [
                    0.0,
                    0.6392822265625,
                    0.09563077241182327,
                    1.0
                ],
                "metallicFactor": 0.0,
                "roughnessFactor": 1.0
            }
        }
    ],
    "meshes": [
        {
            "name": "Cube.001",
            "primitives": [
                {
                    "attributes": {
                        "NORMAL": 1,
                        "POSITION": 10
                    },
                    "indices": 9,
                    "mode": 4
                }
            ]
        },
        {
            "name": "Cube.002",
            "primitives": [
                {
                    "attributes": {
                        "NORMAL": 16,
                        "POSITION": 15
                    },
                    "indices": 3,
                    "material": 3,
                    "mode": 4
                }
            ]
        },
        {
            "name": "Icosphere",
            "primitives": [
                {
                    "attributes": {
                        "COLOR_0": 13,
                        "NORMAL": 12,
                        "POSITION": 4
                    },
                    "indices": 0,
                    "material": 2,
                    "mode": 4
                },
                {
                    "attributes": {
                        "COLOR_0": 13,
                        "NORMAL": 12,
                        "POSITION": 4
                    },
                    "indices": 11,
                    "material": 1,
                    "mode": 4
                }
            ]
        },
        {
            "name": "Icosphere.002",
            "primitives": [
                {
                    "attributes": {
                        "NORMAL": 14,
                        "POSITION": 7
                    },
                    "indices": 5,
                    "material": 4,
                    "mode": 4
                }
            ]
        },
        {
            "name": "Icosphere.003"
        },
        {
            "name": "Icosphere.004",
            "primitives": [
                {
                    "attributes": {
                        "NORMAL": 2,
                        "POSITION": 8
                    },
                    "indices": 6,
                    "material": 0,
                    "mode": 4
                }
            ]
        }
    ],
    "nodes": [
        {
            "camera": 0,
            "name": "Camera",
            "rotation": [
                0.483536034822464,
                0.20870360732078552,
                0.33687159419059753,
                0.7804827094078064
            ],
            "scale": [
                1.0,
                1.0,
                1.0
            ],
            "translation": [
                7.481131553649902,
                -6.5076398849487305,
                5.34366512298584
            ]
        },
        {
            "mesh": 0,
            "name": "Cube",
            "rotation": [
                0.0,
                0.0,
                0.0,
                1.0
            ],
            "scale": [
                1.0,
                1.0,
                1.0
            ],
            "translation": [
                -0.20404338836669922,
                -0.21664714813232422,
                -0.04589569568634033
            ]
        },
        {
            "mesh": 1,
            "name": "Cube.001",
            "rotation": [
                0.0,
                0.0,
                0.0,
                1.0
            ],
            "scale": [
                0.7008219361305237,
                0.7008219361305237,
                0.7008219361305237
            ],
            "translation": [
                -1.412118673324585,
                1.5136096477508545,
                4.665924549102783
            ]
        },
        {
            "mesh": 2,
            "name": "Icosphere",
            "rotation": [
                0.0,
                0.0,
                0.0,
                1.0
            ],
            "scale": [
                6.050155162811279,
                5.77506160736084,
                2.563917398452759
            ],
            "translation": [
                0.0674443244934082,
                0.07694315910339355,
                4.633119583129883
            ]
        },
        {
            "mesh": 3,
            "name": "Icosphere.001",
            "rotation": [
                0.0,
                0.0,
                0.0,
                1.0
            ],
            "scale": [
                0.24399840831756592,
                0.24399840831756592,
                0.24399840831756592
            ],
            "translation": [
                -1.2530313730239868,
                2.7840499877929688,
                8.577850341796875
            ]
        },
        {
            "mesh": 4,
            "name": "Icosphere.002",
            "rotation": [
                0.0,
                0.0,
                0.0,
                1.0
            ],
            "scale": [
                0.24399840831756592,
                0.24399840831756592,
                0.24399840831756592
            ],
            "translation": [
                -1.2530313730239868,
                2.7840499877929688,
                8.66619873046875
            ]
        },
        {
            "mesh": 5,
            "name": "Icosphere.003",
            "rotation": [
                0.0,
                0.0,
                0.0,
                1.0
            ],
            "scale": [
                0.14332273602485657,
                0.14332273602485657,
                0.14332273602485657
            ],
            "translation": [
                -1.7082536220550537,
                2.994215488433838,
                8.00813102722168
            ]
        },
        {
            "name": "Lamp",
            "rotation": [
                0.16907575726509094,
                0.27217137813568115,
                0.7558802962303162,
                0.570947527885437
            ],
            "scale": [
                1.0,
                0.9999999403953552,
                1.0
            ],
            "translation": [
                4.076245307922363,
                1.0054539442062378,
                10.341285705566406
            ]
        },
        {
            "children": [
                6,
                5,
                4,
                3,
                7,
                0,
                2
            ],
            "matrix": [
                -1.0,
                0.0,
                0.0,
                0.0,
                0.0,
                0.0,
                1.0,
                0.0,
                0.0,
                1.0,
                0.0,
                0.0,
                0.0,
                0.0,
                0.0,
                1.0
            ],
            "name": "Scene_root"
        },
        {
            "children": [
                1
            ],
            "matrix": [
                -1.0,
                0.0,
                0.0,
                0.0,
                0.0,
                0.0,
                1.0,
                0.0,
                0.0,
                1.0,
                0.0,
                0.0,
                0.0,
                0.0,
                0.0,
                1.0
            ],
            "name": "Scene.001_root"
        }
    ],
    "scene": 0,
    "scenes": [
        {
            "extras": {
                "active_camera": 0,
                "background_color": [
                    0.05087608844041824,
                    0.05087608844041824,
                    0.05087608844041824
                ],
                "frames_per_second": 24
            },
            "name": "Scene",
            "nodes": [
                8
            ]
        },
        {
            "extras": {
                "background_color": [
                    0.05,
                    0.05,
                    0.05
                ],
                "frames_per_second": 24
            },
            "name": "Scene.001",
            "nodes": [
                9
            ]
        }
    ]
}
