{
    "accessors" : [
        {
            "bufferView" : 0, 
            "componentType" : 5123, 
            "count" : 9360, 
            "max" : [
                6229
            ], 
            "min" : [
                0
            ], 
            "type" : "SCALAR"
        }, 
        {
            "bufferView" : 1, 
            "componentType" : 5126, 
            "count" : 6230, 
            "max" : [
                0.3965190052986145, 
                6.2847900390625, 
                0.26617228984832764
            ], 
            "min" : [
                -2.4671401977539062, 
                -0.05729702115058899, 
                -1.7672322988510132
            ], 
            "type" : "VEC3"
        }, 
        {
            "bufferView" : 2, 
            "componentType" : 5126, 
            "count" : 6230, 
            "max" : [
                0.9986796379089355, 
                0.9983027577400208, 
                0.9988247156143188
            ], 
            "min" : [
                -0.9988229274749756, 
                -0.961297333240509, 
                -0.9978052377700806
            ], 
            "type" : "VEC3"
        }, 
        {
            "bufferView" : 3, 
            "componentType" : 5121, 
            "count" : 240, 
            "max" : [
                239
            ], 
            "min" : [
                0
            ], 
            "type" : "SCALAR"
        }, 
        {
            "bufferView" : 4, 
            "componentType" : 5126, 
            "count" : 240, 
            "max" : [
                1.6413803100585938, 
                8.19520378112793, 
                3.302638530731201
            ], 
            "min" : [
                -5.220474720001221, 
                4.0512518882751465, 
                -0.7175574898719788
            ], 
            "type" : "VEC3"
        }, 
        {
            "bufferView" : 5, 
            "componentType" : 5126, 
            "count" : 240, 
            "max" : [
                0.9087210893630981, 
                0.9807708263397217, 
                0.9729738831520081
            ], 
            "min" : [
                -0.9755677580833435, 
                -0.9814020395278931, 
                -0.9936825037002563
            ], 
            "type" : "VEC3"
        }, 
        {
            "bufferView" : 6, 
            "componentType" : 5123, 
            "count" : 756, 
            "max" : [
                433
            ], 
            "min" : [
                0
            ], 
            "type" : "SCALAR"
        }, 
        {
            "bufferView" : 7, 
            "componentType" : 5126, 
            "count" : 434, 
            "max" : [
                0.9454922080039978, 
                0.21641147136688232, 
                0.9109952449798584
            ], 
            "min" : [
                -0.8843293786048889, 
                -0.09402026236057281, 
                -0.9220935702323914
            ], 
            "type" : "VEC3"
        }, 
        {
            "bufferView" : 8, 
            "componentType" : 5126, 
            "count" : 434, 
            "max" : [
                0.9977566599845886, 
                0.9997870922088623, 
                0.4263259470462799
            ], 
            "min" : [
                -0.5831335783004761, 
                -0.030469797551631927, 
                -0.8698241710662842
            ], 
            "type" : "VEC3"
        }, 
        {
            "bufferView" : 9, 
            "componentType" : 5126, 
            "count" : 434, 
            "max" : [
                1.0, 
                1.0, 
                1.0, 
                1.0
            ], 
            "min" : [
                1.0, 
                1.0, 
                1.0, 
                1.0
            ], 
            "type" : "VEC4"
        }, 
        {
            "bufferView" : 10, 
            "componentType" : 5123, 
            "count" : 3294, 
            "max" : [
                2195
            ], 
            "min" : [
                0
            ], 
            "type" : "SCALAR"
        }, 
        {
            "bufferView" : 11, 
            "componentType" : 5126, 
            "count" : 2196, 
            "max" : [
                0.9454922080039978, 
                0.2132938802242279, 
                0.9267945885658264
            ], 
            "min" : [
                -0.9362155795097351, 
                -1.751079797744751, 
                -0.9401174783706665
            ], 
            "type" : "VEC3"
        }, 
        {
            "bufferView" : 12, 
            "componentType" : 5126, 
            "count" : 2196, 
            "max" : [
                0.9911234974861145, 
                0.9996120929718018, 
                0.9961897730827332
            ], 
            "min" : [
                -0.9993497133255005, 
                -0.996887743473053, 
                -0.9977871179580688
            ], 
            "type" : "VEC3"
        }, 
        {
            "bufferView" : 13, 
            "componentType" : 5126, 
            "count" : 2196, 
            "max" : [
                1.0, 
                1.0, 
                1.0, 
                1.0
            ], 
            "min" : [
                1.0, 
                1.0, 
                1.0, 
                1.0
            ], 
            "type" : "VEC4"
        }, 
        {
            "bufferView" : 14, 
            "componentType" : 5121, 
            "count" : 240, 
            "max" : [
                239
            ], 
            "min" : [
                0
            ], 
            "type" : "SCALAR"
        }, 
        {
            "bufferView" : 15, 
            "componentType" : 5126, 
            "count" : 240, 
            "max" : [
                1.1195119619369507, 
                1.1282905340194702, 
                1.128961205482483
            ], 
            "min" : [
                -1.151658296585083, 
                -1.0, 
                -1.1331194639205933
            ], 
            "type" : "VEC3"
        }, 
        {
            "bufferView" : 16, 
            "componentType" : 5126, 
            "count" : 240, 
            "max" : [
                0.9905961751937866, 
                0.9838851094245911, 
                0.9342464804649353
            ], 
            "min" : [
                -0.9493332505226135, 
                -0.9609105587005615, 
                -0.9578131437301636
            ], 
            "type" : "VEC3"
        }, 
        {
            "bufferView" : 17, 
            "componentType" : 5123, 
            "count" : 9360, 
            "max" : [
                6229
            ], 
            "min" : [
                0
            ], 
            "type" : "SCALAR"
        }, 
        {
            "bufferView" : 18, 
            "componentType" : 5126, 
            "count" : 6230, 
            "max" : [
                0.3965190052986145, 
                6.2847900390625, 
                0.26617228984832764
            ], 
            "min" : [
                -2.4671401977539062, 
                -0.05729702115058899, 
                -1.7672322988510132
            ], 
            "type" : "VEC3"
        }, 
        {
            "bufferView" : 19, 
            "componentType" : 5126, 
            "count" : 6230, 
            "max" : [
                0.9986796379089355, 
                0.9983027577400208, 
                0.9988247156143188
            ], 
            "min" : [
                -0.9988229274749756, 
                -0.961297333240509, 
                -0.9978052377700806
            ], 
            "type" : "VEC3"
        }
    ], 
    "asset" : {
        "generator" : "Khronos Blender glTF 2.0 exporter", 
        "version" : "2.0"
    }, 
    "bufferViews" : [
        {
            "buffer" : 0, 
            "byteLength" : 18720, 
            "byteOffset" : 0, 
            "target" : 34963
        }, 
        {
            "buffer" : 0, 
            "byteLength" : 74760, 
            "byteOffset" : 18720, 
            "target" : 34962
        }, 
        {
            "buffer" : 0, 
            "byteLength" : 74760, 
            "byteOffset" : 93480, 
            "target" : 34962
        }, 
        {
            "buffer" : 0, 
            "byteLength" : 240, 
            "byteOffset" : 168240, 
            "target" : 34963
        }, 
        {
            "buffer" : 0, 
            "byteLength" : 2880, 
            "byteOffset" : 168480, 
            "target" : 34962
        }, 
        {
            "buffer" : 0, 
            "byteLength" : 2880, 
            "byteOffset" : 171360, 
            "target" : 34962
        }, 
        {
            "buffer" : 0, 
            "byteLength" : 1512, 
            "byteOffset" : 174240, 
            "target" : 34963
        }, 
        {
            "buffer" : 0, 
            "byteLength" : 5208, 
            "byteOffset" : 175752, 
            "target" : 34962
        }, 
        {
            "buffer" : 0, 
            "byteLength" : 5208, 
            "byteOffset" : 180960, 
            "target" : 34962
        }, 
        {
            "buffer" : 0, 
            "byteLength" : 6944, 
            "byteOffset" : 186168, 
            "target" : 34962
        }, 
        {
            "buffer" : 0, 
            "byteLength" : 6588, 
            "byteOffset" : 193112, 
            "target" : 34963
        }, 
        {
            "buffer" : 0, 
            "byteLength" : 26352, 
            "byteOffset" : 199700, 
            "target" : 34962
        }, 
        {
            "buffer" : 0, 
            "byteLength" : 26352, 
            "byteOffset" : 226052, 
            "target" : 34962
        }, 
        {
            "buffer" : 0, 
            "byteLength" : 35136, 
            "byteOffset" : 252404, 
            "target" : 34962
        }, 
        {
            "buffer" : 0, 
            "byteLength" : 240, 
            "byteOffset" : 287540, 
            "target" : 34963
        }, 
        {
            "buffer" : 0, 
            "byteLength" : 2880, 
            "byteOffset" : 287780, 
            "target" : 34962
        }, 
        {
            "buffer" : 0, 
            "byteLength" : 2880, 
            "byteOffset" : 290660, 
            "target" : 34962
        }, 
        {
            "buffer" : 0, 
            "byteLength" : 18720, 
            "byteOffset" : 293540, 
            "target" : 34963
        }, 
        {
            "buffer" : 0, 
            "byteLength" : 74760, 
            "byteOffset" : 312260, 
            "target" : 34962
        }, 
        {
            "buffer" : 0, 
            "byteLength" : 74760, 
            "byteOffset" : 387020, 
            "target" : 34962
        }
    ], 
    "buffers" : [
        {
            "byteLength" : 461780, 
            "uri" : "data:application/octet-stream;base64,"
        }
    ], 
    "cameras" : [
        {
            "name" : "Camera", 
            "perspective" : {
                "aspectRatio" : 1.7777777777777777, 
                "yfov" : 0.5033799372418416, 
                "zfar" : 100.0, 
                "znear" : 0.10000000149011612
            }, 
            "type" : "perspective"
        }
    ], 
    "materials" : [
        {
            "name" : "Material", 
            "pbrMetallicRoughness" : {
                "baseColorFactor" : [
                    0.024706429611242253, 
                    0.640000066757203, 
                    0.0, 
                    1.0
                ], 
                "metallicFactor" : 0.0
            }
        }, 
        {
            "name" : "Material.001", 
            "pbrMetallicRoughness" : {
                "baseColorFactor" : [
                    0.640000066757203, 
                    0.2742599766591187, 
                    0.02369603848004398, 
                    1.0
                ], 
                "metallicFactor" : 0.0
            }
        }, 
        {
            "name" : "Material.002", 
            "pbrMetallicRoughness" : {
                "baseColorFactor" : [
                    0.2634909430666408, 
                    0.640000066757203, 
                    0.011774412718033977, 
                    1.0
                ], 
                "metallicFactor" : 0.0
            }
        }, 
        {
            "name" : "Material.003", 
            "pbrMetallicRoughness" : {
                "baseColorFactor" : [
                    0.640000066757203, 
                    0.1127996342301314, 
                    0.0, 
                    1.0
                ], 
                "metallicFactor" : 0.0
            }
        }, 
        {
            "name" : "Material.004", 
            "pbrMetallicRoughness" : {
                "baseColorFactor" : [
                    0.0, 
                    0.6392822360885475, 
                    0.09563077234671669, 
                    1.0
                ], 
                "metallicFactor" : 0.0
            }
        }
    ], 
    "meshes" : [
        {
            "name" : "Cube.002", 
            "primitives" : [
                {
                    "attributes" : {
                        "NORMAL" : 2, 
                        "POSITION" : 1
                    }, 
                    "indices" : 0, 
                    "material" : 3
                }
            ]
        }, 
        {
            "name" : "Icosphere.004", 
            "primitives" : [
                {
                    "attributes" : {
                        "NORMAL" : 5, 
                        "POSITION" : 4
                    }, 
                    "indices" : 3, 
                    "material" : 0
                }
            ]
        }, 
        {
            "name" : "Icosphere", 
            "primitives" : [
                {
                    "attributes" : {
                        "COLOR_0" : 9, 
                        "NORMAL" : 8, 
                        "POSITION" : 7
                    }, 
                    "indices" : 6, 
                    "material" : 2
                }, 
                {
                    "attributes" : {
                        "COLOR_0" : 13, 
                        "NORMAL" : 12, 
                        "POSITION" : 11
                    }, 
                    "indices" : 10, 
                    "material" : 1
                }
            ]
        }, 
        {
            "name" : "Icosphere.002", 
            "primitives" : [
                {
                    "attributes" : {
                        "NORMAL" : 16, 
                        "POSITION" : 15
                    }, 
                    "indices" : 14, 
                    "material" : 4
                }
            ]
        }, 
        {
            "name" : "Cube.001", 
            "primitives" : [
                {
                    "attributes" : {
                        "NORMAL" : 19, 
                        "POSITION" : 18
                    }, 
                    "indices" : 17
                }
            ]
        }
    ], 
    "nodes" : [
        {
            "camera" : 0, 
            "name" : "Correction_Camera", 
            "rotation" : [
                -0.7071067690849304, 
                -0.0, 
                0.0, 
                0.7071067690849304
            ]
        }, 
        {
            "children" : [
                0
            ], 
            "name" : "Camera", 
            "rotation" : [
                0.483536034822464, 
                0.33687159419059753, 
                -0.20870360732078552, 
                0.7804827094078064
            ], 
            "translation" : [
                7.481131553649902, 
                5.34366512298584, 
                6.5076398849487305
            ]
        }, 
        {
            "mesh" : 4, 
            "name" : "Cube", 
            "translation" : [
                -0.20404338836669922, 
                -0.04589569568634033, 
                0.21664714813232422
            ]
        }, 
        {
            "mesh" : 0, 
            "name" : "Cube.001", 
            "scale" : [
                0.7008219361305237, 
                0.7008219361305237, 
                0.7008219361305237
            ], 
            "translation" : [
                -1.412118673324585, 
                4.665924549102783, 
                -1.5136096477508545
            ]
        }, 
        {
            "mesh" : 2, 
            "name" : "Icosphere", 
            "scale" : [
                6.050155162811279, 
                2.563917398452759, 
                5.77506160736084
            ], 
            "translation" : [
                0.0674443244934082, 
                4.633119583129883, 
                -0.07694315910339355
            ]
        }, 
        {
            "mesh" : 3, 
            "name" : "Icosphere.001", 
            "scale" : [
                0.24399840831756592, 
                0.24399840831756592, 
                0.24399840831756592
            ], 
            "translation" : [
                -1.2530313730239868, 
                8.577850341796875, 
                -2.7840499877929688
            ]
        }, 
        {
            "name" : "Icosphere.002", 
            "scale" : [
                0.24399840831756592, 
                0.24399840831756592, 
                0.24399840831756592
            ], 
            "translation" : [
                -1.2530313730239868, 
                8.66619873046875, 
                -2.7840499877929688
            ]
        }, 
        {
            "mesh" : 1, 
            "name" : "Icosphere.003", 
            "scale" : [
                0.14332273602485657, 
                0.14332273602485657, 
                0.14332273602485657
            ], 
            "translation" : [
                -1.7082536220550537, 
                8.00813102722168, 
                -2.994215488433838
            ]
        }, 
        {
            "name" : "Lamp", 
            "rotation" : [
                0.16907575726509094, 
                0.7558802962303162, 
                -0.27217137813568115, 
                0.570947527885437
            ], 
            "scale" : [
                1.0, 
                1.0, 
                0.9999999403953552
            ], 
            "translation" : [
                4.076245307922363, 
                10.341285705566406, 
                -1.0054539442062378
            ]
        }
    ], 
    "scene" : 0, 
    "scenes" : [
        {
            "name" : "Scene", 
            "nodes" : [
                7, 
                6, 
                5, 
                4, 
                8, 
                1, 
                3
            ]
        }, 
        {
            "name" : "Scene.001", 
            "nodes" : [
                2
            ]
        }
    ]
}
