{"accessors":[{"bufferView":0,"componentType":5123,"count":2298,"max":[387],"min":[0],"type":"SCALAR"},{"bufferView":1,"componentType":5126,"count":388,"max":[0.34324488043785095,1.1275378465652466,0.12806463241577148],"min":[-0.7612124681472778,0.02397245168685913,-0.7625874280929565],"type":"VEC3"},{"bufferView":2,"componentType":5126,"count":388,"max":[0.9965513944625854,0.9959715604782104,0.9965513944625854],"min":[-0.9965513944625854,-0.999969482421875,-0.9965513944625854],"type":"VEC3"},{"bufferView":3,"componentType":5123,"count":5496,"max":[1089],"min":[0],"type":"SCALAR"},{"bufferView":4,"componentType":5126,"count":1090,"max":[0.7085001468658447,0.3874197006225586,0.6858106255531311],"min":[-0.5138457417488098,0.09529446810483932,-0.14801332354545593],"type":"VEC3"},{"bufferView":5,"componentType":5126,"count":1090,"max":[0.99993896484375,1.0,0.999786376953125],"min":[-0.999786376953125,-0.843928337097168,-0.99993896484375],"type":"VEC3"},{"bufferView":6,"componentType":5123,"count":36,"max":[23],"min":[0],"type":"SCALAR"},{"bufferView":7,"componentType":5126,"count":24,"max":[1.0,0.09316428005695343,1.0],"min":[-1.0,0.0,-1.0],"type":"VEC3"},{"bufferView":8,"componentType":5126,"count":24,"max":[0.9766427874565125,1.0,0.9766427874565125],"min":[-0.9766427874565125,-1.0,-0.9766427874565125],"type":"VEC3"}],"asset":{"generator":"Khronos Blender glTF 2.0 exporter","version":"2.0"},"bufferViews":[{"buffer":0,"byteLength":4596,"byteOffset":0,"target":34963},{"buffer":0,"byteLength":4656,"byteOffset":4596,"target":34962},{"buffer":0,"byteLength":4656,"byteOffset":9252,"target":34962},{"buffer":0,"byteLength":10992,"byteOffset":13908,"target":34963},{"buffer":0,"byteLength":13080,"byteOffset":24900,"target":34962},{"buffer":0,"byteLength":13080,"byteOffset":37980,"target":34962},{"buffer":0,"byteLength":72,"byteOffset":51060,"target":34963},{"buffer":0,"byteLength":288,"byteOffset":51132,"target":34962},{"buffer":0,"byteLength":288,"byteOffset":51420,"target":34962}],"buffers":[{"byteLength":51708,"uri":"data:application/octet-stream;base64,"}],"meshes":[{"name":"Plane","primitives":[{"attributes":{"NORMAL":2,"POSITION":1},"indices":0},{"attributes":{"NORMAL":5,"POSITION":4},"indices":3},{"attributes":{"NORMAL":8,"POSITION":7},"indices":6}]}],"nodes":[{"name":"Camera","rotation":[0.483536034822464,0.33687159419059753,-0.20870360732078552,0.7804827094078064],"translation":[7.481131553649902,5.34366512298584,6.5076398849487305]},{"name":"Lamp","rotation":[0.16907575726509094,0.7558802962303162,-0.27217137813568115,0.570947527885437],"scale":[1.0,1.0,0.9999999403953552],"translation":[4.076245307922363,5.903861999511719,-1.0054539442062378]},{"mesh":0,"name":"Plane"}],"scene":0,"scenes":[{"name":"Scene","nodes":[1,0,2]}]}
