{"accessors":[{"bufferView":0,"componentType":5123,"count":7830,"max":[1501],"min":[0],"type":"SCALAR"},{"bufferView":1,"componentType":5126,"count":1502,"max":[1.0,1.1275378465652466,1.0],"min":[-1.0,0.0,-1.0],"type":"VEC3"},{"bufferView":2,"componentType":5126,"count":1502,"max":[0.99993896484375,1.0,0.999786376953125],"min":[-0.999786376953125,-1.0,-0.99993896484375],"type":"VEC3"}],"asset":{"generator":"Khronos Blender glTF 2.0 exporter","version":"2.0"},"bufferViews":[{"buffer":0,"byteLength":15660,"byteOffset":0,"target":34963},{"buffer":0,"byteLength":18024,"byteOffset":15660,"target":34962},{"buffer":0,"byteLength":18024,"byteOffset":33684,"target":34962}],"buffers":[{"byteLength":51708,"uri":"data:application/octet-stream;base64,"}],"materials":[{"name":"Material.001","pbrMetallicRoughness":{"baseColorFactor":[0.699999988079071,0.699999988079071,0.699999988079071,1.0],"metallicFactor":0.0}}],"meshes":[{"name":"Plane","primitives":[{"attributes":{"NORMAL":2,"POSITION":1},"indices":0,"material":0}]}],"nodes":[{"name":"Camera","rotation":[0.483536034822464,0.33687159419059753,-0.20870360732078552,0.7804827094078064],"translation":[7.481131553649902,5.34366512298584,6.5076398849487305]},{"name":"Lamp","rotation":[0.16907575726509094,0.7558802962303162,-0.27217137813568115,0.570947527885437],"scale":[1.0,1.0,0.9999999403953552],"translation":[4.076245307922363,5.903861999511719,-1.0054539442062378]},{"mesh":0,"name":"Plane"}],"scene":0,"scenes":[{"name":"Scene","nodes":[1,0,2]}]}
